<svg xmlns="http://www.w3.org/2000/svg" xmlns:xlink="http://www.w3.org/1999/xlink" version="1.1" x="0px" y="0px" viewBox="0 0 100 100" enable-background="new 0 0 100 100" xml:space="preserve"><path fill="#000000" d="M61.283,49.143L51.102,38.961c-0.317-0.317-0.74-0.439-1.154-0.404c-0.414-0.036-0.839,0.085-1.156,0.403  L38.717,49.036c-0.569,0.569-0.569,1.493,0.001,2.062c0.284,0.285,0.657,0.427,1.03,0.427s0.747-0.143,1.031-0.427l0.105-0.105  v8.999c0,0.805,0.653,1.457,1.458,1.457h12.004h3.203c0.806,0,1.458-0.652,1.458-1.457v-9l0.213,0.212  c0.285,0.285,0.658,0.428,1.031,0.428s0.746-0.143,1.031-0.428C61.853,50.635,61.853,49.712,61.283,49.143z M56.092,58.532h-1.745  H43.801V48.076l6.146-6.146l6.146,6.146V58.532z"/></svg>
