<?xml version="1.0" encoding="utf-8"?>
<!-- Generator: Adobe Illustrator 16.0.0, SVG Export Plug-In . SVG Version: 6.00 Build 0)  -->
<!DOCTYPE svg PUBLIC "-//W3C//DTD SVG 1.1//EN" "http://www.w3.org/Graphics/SVG/1.1/DTD/svg11.dtd">
<svg version="1.1" id="Layer_1" xmlns="http://www.w3.org/2000/svg" xmlns:xlink="http://www.w3.org/1999/xlink" x="0px" y="0px"
	 width="55px" height="55px" viewBox="0 0 55 55" enable-background="new 0 0 55 55" xml:space="preserve">
<circle fill-rule="evenodd" clip-rule="evenodd" fill="#FFFFFF" cx="27.173" cy="26.938" r="22.688"/>
<circle fill-rule="evenodd" clip-rule="evenodd" fill="#FFFFFF" cx="124.735" cy="28" r="23.062"/>
<circle fill-rule="evenodd" clip-rule="evenodd" fill="#FFFFFF" cx="124.82" cy="121.608" r="26.334"/>
<circle fill-rule="evenodd" clip-rule="evenodd" fill="#FFFFFF" cx="26.613" cy="123.254" r="21.747"/>
<circle fill-rule="evenodd" clip-rule="evenodd" fill="#FFFFFF" cx="-77.764" cy="120.574" r="23.499"/>
<g>
	<path fill="#F9AE3A" d="M99.889,121.68c1.29-0.914,2.754-1.949,5.578-1.949c2.823,0,4.286,1.035,5.577,1.949
		c1.144,0.809,2.13,1.508,4.191,1.508s3.048-0.699,4.192-1.508c1.291-0.914,2.754-1.949,5.579-1.949
		c2.824,0,4.288,1.035,5.578,1.949c1.146,0.809,2.132,1.508,4.194,1.508s3.049-0.699,4.193-1.508
		c1.29-0.914,2.754-1.949,5.578-1.949c2.826,0,4.289,1.035,5.582,1.949c0.294,0.209,0.58,0.41,0.876,0.594
		c0.007-0.223,0.017-0.441,0.017-0.664c0-14.498-11.753-26.251-26.25-26.251s-26.25,11.753-26.25,26.251
		c0,0.311,0.013,0.619,0.023,0.928C99.019,122.292,99.443,121.995,99.889,121.68z"/>
	<path fill="#F9AE3A" d="M148.746,130.838c-1.145-0.809-2.133-1.506-4.195-1.506c-2.061,0-3.049,0.697-4.191,1.506
		c-1.292,0.914-2.756,1.949-5.58,1.949c-2.826,0-4.289-1.035-5.58-1.949c-1.144-0.809-2.132-1.506-4.192-1.506
		c-2.062,0-3.05,0.697-4.192,1.506c-1.292,0.914-2.755,1.949-5.579,1.949s-4.287-1.035-5.579-1.949
		c-1.142-0.809-2.129-1.506-4.189-1.506s-3.049,0.697-4.192,1.506c-0.27,0.191-0.552,0.387-0.849,0.578
		c3.886,9.637,13.32,16.443,24.35,16.443c11.122,0,20.622-6.922,24.445-16.688C149.059,131.061,148.9,130.95,148.746,130.838z"/>
	<path fill="#F9AE3A" d="M148.746,123.639c-1.145-0.811-2.133-1.508-4.195-1.508c-2.061,0-3.049,0.697-4.191,1.508
		c-1.292,0.912-2.756,1.949-5.58,1.949c-2.826,0-4.289-1.037-5.58-1.949c-1.144-0.811-2.132-1.508-4.192-1.508
		c-2.062,0-3.05,0.697-4.192,1.508c-1.292,0.912-2.755,1.949-5.579,1.949s-4.287-1.037-5.579-1.949
		c-1.142-0.811-2.129-1.508-4.189-1.508s-3.049,0.697-4.192,1.508c-0.716,0.506-1.492,1.043-2.516,1.426
		c0.181,1.373,0.465,2.713,0.851,4.01c0.092-0.064,0.184-0.129,0.279-0.193c1.29-0.914,2.754-1.951,5.578-1.951
		c2.823,0,4.286,1.037,5.577,1.951c1.144,0.809,2.13,1.506,4.191,1.506s3.048-0.699,4.192-1.506
		c1.291-0.914,2.754-1.951,5.579-1.951c2.824,0,4.288,1.037,5.578,1.951c1.146,0.807,2.132,1.506,4.194,1.506
		s3.049-0.699,4.193-1.506c1.29-0.914,2.754-1.951,5.578-1.951c2.746,0,4.203,0.979,5.47,1.871c0.36-1.268,0.627-2.576,0.795-3.916
		C150.005,124.522,149.354,124.069,148.746,123.639z"/>
</g>
<g>
	<path fill-rule="evenodd" clip-rule="evenodd" fill="#F9AE3A" d="M26.012,17.836c-4.246-1.946-8.49-1.948-12.738,0
		c-0.225,0.104-0.294,0.234-0.293,0.478c0.006,6.047,0.004,12.096,0.004,18.144c0,0.109,0,0.217,0,0.363
		c4.449-1.893,8.868-1.889,13.313-0.002c0-0.144,0-0.252,0-0.36c0.001-6.048,0-12.096,0.007-18.144
		C26.305,18.07,26.237,17.939,26.012,17.836z"/>
	<path fill-rule="evenodd" clip-rule="evenodd" fill="#F9AE3A" d="M13.235,38.417c4.277,0,8.535,0,12.839,0
		C23.009,36.434,15.925,36.44,13.235,38.417z"/>
	<path fill-rule="evenodd" clip-rule="evenodd" fill="#F9AE3A" d="M10.73,38.418c0.289,0,0.557,0,0.781,0c0-6.678,0-13.342,0-20.023
		c-0.282,0-0.519,0-0.781,0C10.73,25.084,10.73,31.748,10.73,38.418z"/>
	<path fill-rule="evenodd" clip-rule="evenodd" fill="#F9AE3A" d="M28.037,38.42c4.274,0,8.533,0,12.85,0
		C37.773,36.43,30.723,36.442,28.037,38.42z"/>
	<path fill-rule="evenodd" clip-rule="evenodd" fill="#F9AE3A" d="M42.573,38.422c0.241,0,0.509,0,0.797,0
		c0-6.694,0-13.354,0-20.017c-0.267,0-0.509,0-0.797,0C42.573,25.092,42.573,31.751,42.573,38.422z"/>
	<path fill-rule="evenodd" clip-rule="evenodd" fill="#F9AE3A" d="M40.845,17.853c-4.253-1.967-8.506-1.968-12.765-0.016
		c-0.219,0.101-0.299,0.225-0.297,0.473c0.008,6.059,0.007,12.118,0.007,18.176c0,0.1,0,0.198,0,0.337
		c4.464-1.899,8.884-1.891,13.313-0.006c0.007-0.117,0.013-0.195,0.013-0.274c0-6.099-0.002-12.198,0.006-18.296
		C41.123,18.017,41.02,17.935,40.845,17.853z"/>
	<path fill-rule="evenodd" clip-rule="evenodd" fill="#F9AE3A" d="M27.5,0C12.312,0,0,12.312,0,27.5S12.312,55,27.5,55
		S55,42.688,55,27.5S42.688,0,27.5,0z M44.863,39.057c0.002,0.622-0.395,0.875-0.889,0.873c-2.161-0.007-4.326-0.003-6.488-0.003
		c-3.486,0-6.971,0-10.457,0c-5.607,0-11.216,0.002-16.824-0.006c-0.23,0-0.494-0.042-0.679-0.163
		c-0.151-0.098-0.217-0.337-0.302-0.522c-0.031-0.067-0.007-0.158-0.007-0.238c0-7.051,0-14.101,0-21.152
		c0-0.694,0.249-0.982,0.934-0.938c1.071,0.072,2.023-0.192,3.017-0.624c4.577-1.984,9.142-1.846,13.641,0.307
		c0.173,0.082,0.301,0.082,0.473,0c4.952-2.342,9.871-2.269,14.76,0.198c0.129,0.064,0.283,0.101,0.426,0.104
		c0.521,0.013,1.042,0.023,1.562,0c0.484-0.02,0.834,0.326,0.834,0.831C44.85,24.836,44.849,31.946,44.863,39.057z"/>
</g>
<g>
	<path fill-rule="evenodd" clip-rule="evenodd" fill="#F9AE3A" d="M-73.057,113.595c-3.852,0-7.678,0-11.523,0
		c0,2.336,0,4.648,0,6.979c3.865,0,7.691,0,11.523,0C-73.057,118.234-73.057,115.923-73.057,113.595z"/>
	<path fill-rule="evenodd" clip-rule="evenodd" fill="#F9AE3A" d="M-77.764,95.86c-14.221,0-25.75,11.528-25.75,25.749
		c0,14.223,11.529,25.75,25.75,25.75s25.75-11.527,25.75-25.75C-52.014,107.388-63.543,95.86-77.764,95.86z M-86.042,108.464
		c0.004-2.285,2.044-4.057,4.327-3.861c2.01,0.174,3.761,1.916,3.615,4.25c-0.024,0.398-0.312,0.689-0.695,0.701
		c-0.4,0.012-0.711-0.273-0.75-0.691c-0.029-0.324-0.012-0.662-0.09-0.973c-0.298-1.197-1.482-1.994-2.699-1.846
		c-1.312,0.16-2.245,1.152-2.26,2.436c-0.016,1.201-0.002,2.4-0.002,3.635c3.875,0,7.695,0,11.562,0c0-0.146,0-0.277,0-0.406
		c0-1.033-0.003-2.066,0.002-3.098c0.009-1.969,1.216-3.527,3.137-3.934c2.589-0.547,4.959,1.428,4.812,4.174
		c-0.023,0.424-0.334,0.709-0.735,0.703c-0.411-0.006-0.709-0.311-0.699-0.764c0.019-1.025-0.331-1.863-1.233-2.396
		c-1.715-1.016-3.82,0.166-3.842,2.156c-0.02,1.725-0.005,3.449-0.005,5.174c0,4.262,0.001,8.525,0,12.787
		c-0.001,0.637-0.448,0.994-0.984,0.787c-0.356-0.139-0.454-0.436-0.453-0.793c0.005-1.338,0.001-2.674,0.001-4.008
		c0-0.133,0-0.266,0-0.418c-3.863,0-7.691,0-11.564,0c0,0.295,0,0.582,0,0.869c0,1.215,0.004,2.43-0.003,3.643
		c-0.003,0.414-0.232,0.678-0.608,0.746c-0.34,0.062-0.662-0.115-0.784-0.447c-0.04-0.109-0.05-0.236-0.05-0.354
		C-86.045,120.511-86.052,114.486-86.042,108.464z M-64.891,136.402c-0.924,0.779-2.007,1.158-3.389,1.168
		c-0.953-0.016-1.979-0.338-2.872-1.031c-1.378-1.066-3.108-1.098-4.474-0.023c-1.355,1.07-2.863,1.492-4.535,1.039
		c-0.649-0.176-1.294-0.508-1.836-0.91c-1-0.74-2.055-1.105-3.27-0.797c-0.445,0.113-0.896,0.326-1.266,0.602
		c-1.902,1.424-4.707,1.299-6.407-0.322c-0.339-0.32-0.421-0.617-0.26-0.936c0.228-0.455,0.773-0.553,1.162-0.191
		c0.802,0.746,1.741,1.074,2.83,0.98c0.632-0.057,1.209-0.266,1.712-0.646c1.827-1.385,4.318-1.404,6.121,0.008
		c1.277,1.002,2.623,1.252,4.104,0.535c0.27-0.131,0.514-0.322,0.754-0.506c1.877-1.438,4.338-1.439,6.209-0.002
		c1.35,1.037,3.158,1.016,4.477-0.057c0.375-0.305,0.793-0.303,1.07,0.004C-64.463,135.646-64.492,136.066-64.891,136.402z
		 M-64.838,131.388c-0.722,0.65-1.578,1.029-2.539,1.166c-0.241,0.033-0.484,0.045-0.64,0.061c-1.226-0.021-2.256-0.354-3.163-1.055
		c-1.351-1.051-3.09-1.072-4.441-0.006c-1.346,1.059-2.833,1.449-4.506,1.066c-0.793-0.184-1.477-0.586-2.117-1.092
		c-0.893-0.705-1.924-0.922-3.019-0.641c-0.457,0.117-0.922,0.334-1.3,0.617c-1.873,1.406-4.682,1.275-6.376-0.338
		c-0.392-0.373-0.444-0.785-0.143-1.117c0.292-0.32,0.734-0.297,1.122,0.062c1.24,1.15,3.213,1.236,4.555,0.197
		c1.676-1.299,4.268-1.311,5.943,0.002c0.727,0.566,1.488,0.99,2.438,1.01c0.86,0.018,1.636-0.221,2.302-0.758
		c1.229-0.994,2.608-1.414,4.178-1.156c0.778,0.131,1.491,0.432,2.118,0.91c1.508,1.148,3.155,1.146,4.648-0.014
		c0.329-0.258,0.76-0.236,1.016,0.049C-64.479,130.666-64.484,131.068-64.838,131.388z"/>
</g>
<path fill-rule="evenodd" clip-rule="evenodd" fill="#F9AE3A" d="M124.5,1.705c-14.521,0-26.295,11.772-26.295,26.295
	c0,14.521,11.773,26.295,26.295,26.295S150.795,42.521,150.795,28C150.795,13.478,139.021,1.705,124.5,1.705z M126.369,46.71
	c-1.068,0.142-2.173,0.134-3.25,0.05c-2.188-0.171-2.396-0.478-2.203-2.878c2.447,0.854,4.84,0.871,7.232,0.028
	C128.655,45.921,128.366,46.445,126.369,46.71z M120.887,42.416c0.192-0.18,0.354-0.451,0.583-0.525
	c2.08-0.692,4.174-0.703,6.249,0.016c0.221,0.077,0.369,0.361,0.551,0.549c-0.193,0.182-0.359,0.472-0.584,0.526
	c-1.008,0.24-2.032,0.414-3.064,0.615c-1.055-0.196-2.083-0.356-3.091-0.597C121.283,42.941,121.1,42.619,120.887,42.416z
	 M142.982,39.121c-0.934,0.26-1.935,0.445-2.896,0.41c-2.896-0.106-5.796-0.256-8.68-0.549c-1.477-0.15-2.624-1.007-3.428-2.347
	c-1.04-1.736-2.197-3.402-3.377-5.209c-1.172,1.803-2.315,3.471-3.358,5.2c-0.803,1.331-1.955,2.077-3.424,2.382
	c-3.498,0.728-7.031,0.813-10.562,0.367c-0.751-0.096-1.54-0.5-2.15-0.969c-0.883-0.68-1.077-1.691-0.705-2.757
	c0.375-1.071,1.255-1.811,2.391-1.689c2.049,0.219,4.068,0.704,6.117,0.912c1.726,0.175,3.48,0.222,5.211,0.12
	c1.06-0.062,1.929-0.728,2.536-1.685c0.675-1.063,1.385-2.112,2.155-3.109c0.445-0.577,0.387-0.982,0.004-1.567
	c-3.362-5.125-6.692-10.275-10.029-15.417c-0.206-0.317-0.402-0.641-0.636-1.015c0.462-0.277,0.847-0.507,1.302-0.777
	c3.701,5.357,7.382,10.684,11.152,16.14c3.737-5.407,7.413-10.726,11.152-16.136c0.432,0.255,0.839,0.496,1.305,0.773
	c-0.252,0.402-0.468,0.757-0.693,1.106c-3.321,5.113-6.635,10.229-9.977,15.329c-0.374,0.57-0.466,0.976-0.004,1.556
	c0.72,0.902,1.387,1.856,1.978,2.848c0.929,1.562,2.376,2.261,4.053,2.148c2.365-0.157,4.711-0.599,7.065-0.916
	c0.866-0.117,1.732-0.284,2.603-0.324c1.569-0.073,2.625,0.776,2.854,2.195C145.143,37.404,144.337,38.744,142.982,39.121z"/>
<g>
	<path fill="#F9AE3A" d="M19.762,131.354c-0.517,0.008-0.99,0.475-1.001,0.986c-0.011,0.527,0.465,1.004,1.009,1.01
		c0.562,0.004,1.017-0.439,1.014-0.99C20.779,131.829,20.289,131.346,19.762,131.354z"/>
	<path fill="#F9AE3A" d="M25.539,119.866c-0.735-0.465-1.453-0.27-1.855,0.5c-0.598,1.148,0.051,3.041,1.226,3.58
		c0.711,0.324,1.438,0.041,1.704-0.691c0.111-0.307,0.158-0.635,0.234-0.953C26.815,121.379,26.262,120.321,25.539,119.866z"/>
	<path fill="#F9AE3A" d="M14.418,127.795c-0.531-0.012-1.019,0.467-1.02,1.002c-0.001,0.539,0.472,1.004,1.017,1
		c0.562-0.002,1.007-0.455,0.996-1.01C15.4,128.268,14.938,127.807,14.418,127.795z"/>
	<path fill="#F9AE3A" d="M13.707,117.577c0.585,0.01,1.018-0.4,1.023-0.973c0.005-0.551-0.452-1.018-0.998-1.02
		c-0.522-0.002-0.99,0.449-1.006,0.975C12.709,117.124,13.135,117.567,13.707,117.577z"/>
	<path fill="#F9AE3A" d="M13.453,122.504c0.007-0.551-0.443-1.008-0.996-1.008c-0.548-0.002-1.001,0.453-1.003,1.004
		c-0.001,0.555,0.455,1.002,1.012,0.99C12.998,123.479,13.446,123.032,13.453,122.504z"/>
	<path fill="#F9AE3A" d="M23.506,94.609c-14.912,0-27,12.089-27,27.001s12.088,27,27,27s27-12.088,27-27
		S38.418,94.609,23.506,94.609z M31.008,128.237c-0.951,3.018-2.54,5.646-4.999,7.68c-2.302,1.906-4.95,2.768-7.943,2.385
		c-2.198-0.283-4.097-1.256-5.726-2.734c-2.682-2.434-4.238-5.502-5.002-9.006c-0.318-1.463-0.465-2.941-0.463-5.055
		c0.072-2.678,0.617-5.857,2.294-8.76c1.424-2.465,3.373-4.379,5.967-5.586c1.593-0.742,3.267-1.121,5.033-0.857
		c2.679,0.4,4.092,2.465,3.515,5.113c-0.054,0.244-0.12,0.486-0.193,0.725c-0.426,1.385,0.372,2.523,1.816,2.564
		c1.002,0.027,1.966,0.205,2.866,0.654c1.871,0.93,2.826,2.557,3.308,4.496C32.186,122.692,31.873,125.489,31.008,128.237z
		 M37.196,115.954c-0.202,0.127-0.243,0.266-0.226,0.484c0.412,5.072,0.438,10.148,0.035,15.223
		c-0.129,1.641-0.386,3.271-0.609,4.902c-0.048,0.346-0.183,0.688-0.316,1.016c-0.176,0.43-0.436,0.789-0.967,0.811
		c-0.552,0.023-0.896-0.314-1.036-0.766c-0.299-0.967-0.59-1.945-0.753-2.939c-0.545-3.344-0.572-6.725-0.676-10.105
		c0.131-2.689,0.267-5.375,0.383-8.064c0.008-0.148-0.094-0.348-0.208-0.451c-1.374-1.234-1.597-3.225-0.253-4.492
		c1.346-1.271,1.676-2.801,1.765-4.492c0.01-0.18,0.044-0.373,0.125-0.529c0.226-0.436,0.792-0.498,1.131-0.111
		c1.123,1.279,2.165,2.615,2.979,4.127C39.801,112.848,38.65,115.036,37.196,115.954z"/>
	<path fill="#F9AE3A" d="M34.451,116.616c-0.449,6.553-0.547,13.074,0.624,19.562c1.044-6.523,1.028-13.066,0.55-19.635
		C35.211,116.569,34.859,116.59,34.451,116.616z"/>
	<path fill="#F9AE3A" d="M35.616,108.459c-0.184,1.561-0.725,2.809-1.866,3.756c-0.175,0.145-0.299,0.367-0.405,0.576
		c-0.636,1.248,0.08,2.457,1.47,2.506c1.874,0.062,3.397-1.789,2.825-3.479C37.227,110.596,36.428,109.59,35.616,108.459z"/>
	<path fill="#F9AE3A" d="M28.871,117.557c-0.932-1.025-2.126-1.506-3.492-1.494c-2.246,0.02-3.676-2.168-3.225-3.953
		c0.087-0.346,0.204-0.684,0.274-1.031c0.365-1.818-0.55-3.135-2.377-3.408c-1.45-0.217-2.841,0.021-4.166,0.625
		c-2.249,1.027-3.985,2.637-5.292,4.727c-1.75,2.801-2.303,5.908-2.373,8.561c0.007,2.654,0.244,4.439,0.879,6.385
		c1.088,3.338,2.881,6.189,6.029,7.93c3.042,1.68,6.124,1.566,9.092-0.256c2.063-1.268,3.467-3.141,4.519-5.283
		c1.474-3.002,2.196-6.146,1.642-9.502C30.177,119.624,29.721,118.495,28.871,117.557z M13.745,114.237
		c1.315,0.006,2.349,1.064,2.332,2.383c-0.017,1.279-1.089,2.316-2.382,2.303c-1.287-0.014-2.332-1.102-2.316-2.41
		C11.394,115.258,12.463,114.229,13.745,114.237z M10.107,122.481c0.002-1.273,1.069-2.332,2.35-2.332
		c1.298,0,2.346,1.064,2.344,2.375c-0.002,1.273-1.082,2.332-2.359,2.314C11.166,124.821,10.105,123.75,10.107,122.481z
		 M14.39,131.143c-1.28-0.014-2.343-1.08-2.339-2.352c0.003-1.262,1.089-2.342,2.354-2.344c1.281-0.002,2.351,1.055,2.354,2.33
		C16.761,130.063,15.666,131.157,14.39,131.143z M19.727,134.696c-1.299-0.033-2.354-1.139-2.312-2.42
		c0.039-1.23,1.166-2.299,2.391-2.271c1.316,0.029,2.354,1.104,2.325,2.402C22.102,133.67,20.99,134.729,19.727,134.696z
		 M27.576,124.44c-0.923,1.236-2.492,1.416-3.82,0.459c-1.396-1.006-2.035-3.025-1.472-4.656c0.692-2.008,2.858-2.564,4.443-1.143
		c0.96,0.859,1.452,1.98,1.45,3.291C28.188,123.135,28.025,123.838,27.576,124.44z"/>
</g>
<rect x="-2.265" y="64.188" fill-rule="evenodd" clip-rule="evenodd" fill="none" width="64" height="12"/>
<text transform="matrix(1 0 0 1 12.4434 72.708)" fill="#2E368F" font-family="'CooperBT-Medium'" font-size="12">Library</text>
<rect x="97.235" y="62.688" fill-rule="evenodd" clip-rule="evenodd" fill="none" width="55" height="15.5"/>
<text transform="matrix(1 0 0 1 109.873 71.208)" fill="#231F20" font-family="'CooperBT-Medium'" font-size="12">Arena</text>
<rect x="-111.265" y="159.188" fill-rule="evenodd" clip-rule="evenodd" fill="none" width="61.5" height="27"/>
<text transform="matrix(1 0 0 1 -107.3887 167.7075)"><tspan x="0" y="0" fill="#2E368F" font-family="'CooperBT-Medium'" font-size="12">Swimming </tspan><tspan x="15.456" y="14.4" fill="#2E368F" font-family="'CooperBT-Medium'" font-size="12">pool</tspan></text>
<rect x="-14.765" y="157.688" fill-rule="evenodd" clip-rule="evenodd" fill="none" width="80" height="35"/>
<text transform="matrix(1 0 0 1 17.6152 166.2075)"><tspan x="0" y="0" fill="#2E368F" font-family="'CooperBT-Medium'" font-size="12">Art  </tspan><tspan x="-27.354" y="14.4" fill="#2E368F" font-family="'CooperBT-Medium'" font-size="12">programming</tspan></text>
<rect x="84.735" y="157.688" fill-rule="evenodd" clip-rule="evenodd" fill="none" width="80" height="35"/>
<text transform="matrix(1 0 0 1 105.2959 166.2075)"><tspan x="0" y="0" fill="#2E368F" font-family="'CooperBT-Medium'" font-size="12">Wading  </tspan><tspan x="8.021" y="14.4" fill="#2E368F" font-family="'CooperBT-Medium'" font-size="12">pool</tspan></text>
<rect x="-195.765" y="-4.812" fill-rule="evenodd" clip-rule="evenodd" fill="none" width="141.5" height="63"/>
<text transform="matrix(1 0 0 1 -191.6377 3.6001)"><tspan x="0" y="0" fill="#2E368F" font-family="'CooperBlackStd'" font-size="12">Community Services</tspan><tspan x="53.531" y="14.4" fill="#2E368F" font-family="'CooperBT-Medium'" font-size="12">icons</tspan></text>
</svg>
