<svg xmlns="http://www.w3.org/2000/svg" xmlns:xlink="http://www.w3.org/1999/xlink" version="1.2" baseProfile="tiny" x="0px" y="0px" viewBox="0 0 100 100" xml:space="preserve"><path d="M90,87.5v-50c0-1.381-1.119-2.5-2.5-2.5H65V12.5c0-1.381-1.119-2.5-2.5-2.5h-50c-1.381,0-2.5,1.119-2.5,2.5v50  c0,1.381,1.119,2.5,2.5,2.5H35v22.5c0,1.381,1.119,2.5,2.5,2.5h50C88.881,90,90,88.881,90,87.5z M40,40h45v45H40V40z M15,60V15h45  v20H37.5c-1.381,0-2.5,1.119-2.5,2.5V60H15z"/><path d="M75.732,50.732L57.5,68.964l-8.232-8.232c-0.976-0.977-2.56-0.977-3.535,0c-0.977,0.976-0.977,2.559,0,3.535l10,10  C56.22,74.756,56.86,75,57.5,75s1.28-0.244,1.768-0.732l20-20c0.977-0.976,0.977-2.559,0-3.535  C78.292,49.756,76.708,49.756,75.732,50.732z"/><text x="0" y="115" fill="#000000" font-size="5px" font-weight="bold" font-family="'Helvetica Neue', Helvetica, Arial-Unicode, Arial, Sans-serif">Created by Arthur Shlain</text><text x="0" y="120" fill="#000000" font-size="5px" font-weight="bold" font-family="'Helvetica Neue', Helvetica, Arial-Unicode, Arial, Sans-serif">from the Noun Project</text></svg>
