<svg xmlns="http://www.w3.org/2000/svg" xmlns:xlink="http://www.w3.org/1999/xlink" version="1.1" x="0px" y="0px" viewBox="0 0 24 24" style="enable-background:new 0 0 24 24;" xml:space="preserve"><g><path d="M18.5,11h-13C2.467,11,0,8.533,0,5.5S2.467,0,5.5,0h13C21.532,0,24,2.467,24,5.5S21.532,11,18.5,11z M5.5,1   C3.019,1,1,3.019,1,5.5S3.019,10,5.5,10h13c2.481,0,4.5-2.019,4.5-4.5S20.981,1,18.5,1H5.5z"/><path d="M18.5,24h-13C2.467,24,0,21.532,0,18.5S2.467,13,5.5,13h13c3.032,0,5.5,2.468,5.5,5.5S21.532,24,18.5,24z M5.5,14   C3.019,14,1,16.019,1,18.5S3.019,23,5.5,23h13c2.481,0,4.5-2.019,4.5-4.5S20.981,14,18.5,14H5.5z"/><path d="M5.5,11v-1C7.981,10,10,7.981,10,5.5S7.981,1,5.5,1V0C8.533,0,11,2.467,11,5.5S8.533,11,5.5,11z"/><path d="M18.5,24c-3.032,0-5.5-2.468-5.5-5.5s2.468-5.5,5.5-5.5v1c-2.481,0-4.5,2.019-4.5,4.5s2.019,4.5,4.5,4.5V24z"/></g><text x="0" y="39" fill="#000000" font-size="5px" font-weight="bold" font-family="'Helvetica Neue', Helvetica, Arial-Unicode, Arial, Sans-serif">Created by ✦ Shmidt Sergey ✦</text><text x="0" y="44" fill="#000000" font-size="5px" font-weight="bold" font-family="'Helvetica Neue', Helvetica, Arial-Unicode, Arial, Sans-serif">from the Noun Project</text></svg>
