<svg xmlns="http://www.w3.org/2000/svg" xmlns:xlink="http://www.w3.org/1999/xlink" version="1.1" x="0px" y="0px" viewBox="100 50 100 200" style="enable-background:new 0 0 283.5 283.5;" xml:space="preserve"><path d="M144.8,189v-84.9c9-1.4,16-9.3,16-18.7c0-10.5-8.5-19-19-19s-19,8.5-19,19c0,9.5,6.9,17.3,16,18.7V189h-9.2l-3.2,43.8h30.7  l-3.3-43.8H144.8z M128.8,85.4c0-7.2,5.8-13,13-13c7.1,0,13,5.8,13,13s-5.8,13-13,13S128.8,92.6,128.8,85.4z M132.9,226.8l2.3-31.8  h13l2.4,31.8H132.9z"/><circle class="cover" cx="142" cy="85" r="19"/><path class="ray" d="M141.8,62.4c-1.7,0-3-1.3-3-3v-5.8c0-1.7,1.3-3,3-3s3,1.3,3,3v5.8C144.8,61,143.4,62.4,141.8,62.4z"/><path class="ray" d="M125.1,68.5c-0.9,0-1.7-0.4-2.3-1.1l-3.7-4.4c-1.1-1.3-0.9-3.2,0.4-4.2c1.3-1.1,3.2-0.9,4.2,0.4l3.7,4.4  c1.1,1.3,0.9,3.2-0.4,4.2C126.4,68.3,125.6,68.5,125.1,68.5z"/><path class="ray" d="M116.1,83.9c-0.2,0-0.3,0-0.5,0l-5.7-1c-1.6-0.3-2.7-1.8-2.4-3.5c0.3-1.6,1.9-2.7,3.5-2.4l5.7,1c1.6,0.3,2.7,1.8,2.4,3.5  C118.9,82.9,117.6,83.9,116.1,83.9z"/><path class="ray" d="M114.4,104.3c-1,0-2-0.5-2.6-1.5c-0.8-1.4-0.3-3.3,1.1-4.1l5-2.9c1.4-0.8,3.3-0.3,4.1,1.1s0.3,3.3-1.1,4.1l-5,2.9  C115.4,104.2,114.9,104.3,114.4,104.3z"/><path class="ray" d="M169.4,104.2c-0.5,0-1-0.1-1.5-0.4l-5-2.9c-1.4-0.8-1.9-2.7-1.1-4.1c0.8-1.4,2.7-1.9,4.1-1.1l5,2.9c1.4,0.8,1.9,2.7,1.1,4.1  C171.4,103.6,170.4,104.2,169.4,104.2z"/><path class="ray" d="M167.4,83.8c-1.4,0-2.7-1-3-2.5c-0.3-1.6,0.8-3.2,2.4-3.5l5.7-1c1.6-0.3,3.2,0.8,3.5,2.4s-0.8,3.2-2.4,3.5l-5.7,1  C167.8,83.7,167.6,83.8,167.4,83.8z"/><path class="ray" d="M158.4,68.4c-0.7,0-1.4-0.2-1.9-0.7c-1.3-1.1-1.4-3-0.4-4.2l3.7-4.4c1.1-1.3,3-1.4,4.2-0.4c1.3,1.1,1.4,3,0.4,4.2l-3.7,4.4  C160.1,68,159.2,68.4,158.4,68.4z"/><text x="0" y="298.5" fill="#000000" font-size="5px" font-weight="bold" font-family="'Helvetica Neue', Helvetica, Arial-Unicode, Arial, Sans-serif">Created by Yeoul Kwon</text><text x="0" y="303.5" fill="#000000" font-size="5px" font-weight="bold" font-family="'Helvetica Neue', Helvetica, Arial-Unicode, Arial, Sans-serif">from the Noun Project</text></svg>
