<svg xmlns="http://www.w3.org/2000/svg" xmlns:xlink="http://www.w3.org/1999/xlink" version="1.1" x="0px" y="0px" viewBox="5 5 54 60" style="enable-background:new 0 0 64 64;" xml:space="preserve"><path d="M41.4,30.2l-12.7-7.3c-0.6-0.4-1.4-0.4-2,0c-0.6,0.4-1,1-1,1.8v14.7c0,0.7,0.4,1.4,1,1.8c0.3,0.2,0.7,0.3,1,0.3  c0.4,0,0.7-0.1,1-0.3l12.7-7.3c0.6-0.4,1-1,1-1.8C42.4,31.3,42,30.6,41.4,30.2z"/><path d="M54.9,22.3c-1.3-3-3-5.6-5.3-7.9c-2.3-2.3-4.9-4.1-7.9-5.3c-3.1-1.3-6.3-2-9.7-2s-6.6,0.7-9.7,2c-3,1.3-5.6,3-7.9,5.3  s-4.1,4.9-5.3,7.9c-1.3,3.1-2,6.3-2,9.7s0.7,6.6,2,9.7c1.3,3,3,5.6,5.3,7.9c2.3,2.3,4.9,4.1,7.9,5.3c3.1,1.3,6.3,2,9.7,2  s6.6-0.7,9.7-2c3-1.3,5.6-3,7.9-5.3c2.3-2.3,4.1-4.9,5.3-7.9c1.3-3.1,2-6.3,2-9.7S56.2,25.4,54.9,22.3z M32,53.1  c-11.6,0-21.1-9.5-21.1-21.1S20.4,10.9,32,10.9S53.1,20.4,53.1,32S43.6,53.1,32,53.1z"/></svg>
