<svg xmlns="http://www.w3.org/2000/svg" xmlns:xlink="http://www.w3.org/1999/xlink" xml:space="preserve" version="1.1" style="shape-rendering:geometricPrecision;text-rendering:geometricPrecision;image-rendering:optimizeQuality;" viewBox="0 0 333 416.25" x="0px" y="0px" fill-rule="evenodd" clip-rule="evenodd"><g><path class="fil0 str0" d="M21 71l291 0c9,0 16,7 16,16l0 135c0,8 -7,15 -16,15l-27 0c0,0 0,-1 0,-2 0,-14 -12,-26 -26,-26 -15,0 -27,12 -27,26 0,1 0,2 0,2l-126 0c0,0 0,-1 0,-2 0,-14 -12,-26 -26,-26 -15,0 -27,12 -27,26 0,1 0,2 0,2l-32 0c-8,0 -15,-7 -15,-15l0 -135c0,-9 7,-16 15,-16z"/><circle class="fil0 str0" cx="80" cy="235" r="27"/><circle class="fil0 str0" cx="259" cy="235" r="27"/><rect class="fil0 str1" x="33" y="94" width="294.598" height="53.3844"/><line class="fil0 str1" x1="90" y1="94" x2="90" y2="147"/><line class="fil0 str1" x1="145" y1="94" x2="145" y2="147"/><line class="fil0 str1" x1="197" y1="94" x2="197" y2="147"/><line class="fil0 str1" x1="250" y1="94" x2="250" y2="147"/></g></svg>