<?xml version="1.0" encoding="utf-8"?>
<!-- Generator: Adobe Illustrator 16.0.0, SVG Export Plug-In . SVG Version: 6.00 Build 0)  -->
<!DOCTYPE svg PUBLIC "-//W3C//DTD SVG 1.1//EN" "http://www.w3.org/Graphics/SVG/1.1/DTD/svg11.dtd">
<svg version="1.1" id="palette_xA0_Image_1_" xmlns="http://www.w3.org/2000/svg" xmlns:xlink="http://www.w3.org/1999/xlink"
	 x="0px" y="0px" width="142.875px" height="142.862px" viewBox="0 0 142.875 142.862" enable-background="new 0 0 142.875 142.862"
	 xml:space="preserve">
<path class="olast" fill-rule="evenodd" clip-rule="evenodd" d="M0,70.496c0.075-9.499,1.279-18.205,3.906-26.704
	C7.18,33.195,12.462,23.749,20.312,15.88C27.953,8.22,36.984,2.887,47.696,0.76c6.046-1.2,12.041-0.954,17.687,1.809
	c5.507,2.695,8.601,7.185,9.417,13.271c0.463,3.458-0.297,6.741-1.214,10.027c-0.77,2.762-0.999,5.546,0.577,8.121
	c1.65,2.697,4.264,3.729,7.308,3.841c4.517,0.167,8.879,0.953,12.962,3.009c6.357,3.201,10.547,8.3,12.99,14.882
	c3.726,10.041,4.14,20.338,2.234,30.802c-1.98,10.88-5.607,21.151-11.745,30.386c-7.269,10.937-16.484,19.697-29.278,23.79
	c-12.57,4.021-24.666,2.365-35.957-4.337c-10.015-5.946-17.331-14.545-22.795-24.72c-5.971-11.117-9.009-23.069-9.617-35.655
	C0.167,73.95,0.068,71.915,0,70.496z M55.721,136.882c1.119,0,2.241,0.041,3.357-0.015c0.795-0.04,1.588-0.187,2.374-0.329
	c10.967-1.998,19.836-7.563,26.947-16.018c5.495-6.533,9.265-14.059,12.222-22.009c4.227-11.363,5.608-23.013,3.279-34.991
	c-0.844-4.338-2.548-8.319-5.312-11.8c-4.175-5.256-9.624-7.881-16.345-7.868c-10.44,0.021-16.099-9.541-14.798-16.667
	c0.322-1.762,0.925-3.472,1.297-5.227c1.065-5.028,0.446-9.591-3.951-12.938c-2.474-1.883-5.413-2.471-8.439-2.724
	c-8.125-0.68-15.371,1.875-22.14,6.088C22.818,19.478,15.348,29.71,10.738,42.135c-3.704,9.981-5.014,20.342-4.702,30.97
	c0.291,9.887,2.012,19.446,5.681,28.647c4.228,10.604,10.245,19.889,19.655,26.646C38.64,133.618,46.609,136.946,55.721,136.882z"/>
<path class="olast" fill-rule="evenodd" clip-rule="evenodd" d="M114.468,83.731c0.219-4.403,0.382-7.593,0.533-10.783
	c0.407-8.538,0.774-17.078,1.239-25.613c0.107-1.976-0.421-3.428-1.87-4.87c-4.803-4.781-5.46-11.597-1.719-16.678
	c1.035-1.407,2.385-2.578,3.527-3.912c3.428-4.002,4.932-8.789,5.548-13.915c0.166-1.387,0.22-2.787,0.366-4.176
	c0.059-0.551,0.174-1.109,0.357-1.631c0.834-2.366,3.292-2.912,4.874-0.983c2.883,3.516,5.819,7.009,8.42,10.73
	c2.161,3.091,4.146,6.371,5.725,9.791c3.335,7.229,0.345,15.09-4.831,19.646c-0.539,0.474-1.062,1.009-1.688,1.33
	c-1.325,0.68-1.573,1.755-1.483,3.1c0.354,5.26,0.712,10.52,0.984,15.785c0.186,3.59,0.314,7.187,0.323,10.781
	c0.019,7.191,0.073,14.388-0.136,21.575c-0.303,10.419-0.895,20.825-2.444,31.152c-0.468,3.117-0.678,6.284-1.326,9.361
	c-0.454,2.154-1.315,4.259-2.253,6.265c-0.657,1.408-2.047,2.169-3.661,2.064c-1.79-0.117-3.162-1.093-3.711-2.782
	c-1.059-3.256-2.221-6.52-2.827-9.873c-1.028-5.687-1.96-11.423-2.39-17.178C115.27,102.804,114.924,92.661,114.468,83.731z
	 M125.039,131.694c0.062-0.003,0.125-0.006,0.188-0.009c0.079-0.372,0.178-0.74,0.234-1.116c2.104-14.013,3.139-28.114,3.39-42.272
	c0.23-12.958-0.216-25.902-1.116-38.831c-0.257-3.702-0.23-3.685-3.982-3.282c-0.831,0.089-1.256,0.296-1.294,1.261
	c-0.408,10.304-1.058,20.602-1.258,30.909c-0.283,14.562,0.462,29.091,2.368,43.544C124.002,125.17,124.547,128.429,125.039,131.694
	z M127.716,10.326c-0.147,0.851-0.236,1.393-0.334,1.933c-0.981,5.417-3.15,10.223-7.372,13.903c-1.807,1.575-2.835,3.523-3.3,5.818
	c-0.527,2.611,0.585,5.305,2.811,6.787c2.233,1.486,4.688,1.656,7.251,1.175c6.73-1.262,12.64-8.8,9.177-16.492
	C133.843,18.771,130.854,14.71,127.716,10.326z"/>
<path class="o1" fill-rule="evenodd" clip-rule="evenodd" d="M94.694,72.066c0.076,3.867-0.957,7.403-3.639,10.225
	c-3.076,3.236-6.953,4.302-11.284,3.197c-5.211-1.329-8.682-4.817-10.792-9.591c-2.26-5.114-2.579-10.409-0.038-15.537
	c3.911-7.89,12.856-8.911,19.04-3.546C92.602,60.823,94.806,65.949,94.694,72.066z M73.517,67.364
	c0.399,4.187,1.889,7.737,5.156,10.281c2.527,1.968,5.539,2.384,7.814-0.563c1.51-1.956,2.07-4.386,1.802-6.779
	c-0.384-3.421-1.976-6.347-4.563-8.704c-3.332-3.037-7.193-2.388-9.064,1.676C74.076,64.544,73.887,65.996,73.517,67.364z"/>
<path class="o2" fill-rule="evenodd" clip-rule="evenodd" d="M30.519,35.43c6.025,0.056,10.466,4.651,10.407,10.77
	c-0.057,5.908-4.815,10.471-10.852,10.405c-5.858-0.063-10.4-4.852-10.357-10.917C19.759,39.824,24.446,35.373,30.519,35.43z
	 M26.053,46.011c-0.022,2.192,2.105,4.302,4.309,4.272c2.145-0.029,4.199-2.02,4.229-4.101c0.032-2.226-1.995-4.364-4.186-4.416
	C28.233,41.715,26.076,43.819,26.053,46.011z"/>
<path class="o4" fill-rule="evenodd" clip-rule="evenodd" d="M33.394,110.887c-5.981,0.006-10.746-4.674-10.734-10.544
	c0.012-5.836,4.833-10.652,10.67-10.658c5.922-0.007,10.673,4.726,10.663,10.621C43.982,106.106,39.2,110.88,33.394,110.887z
	 M29.116,100.268c-0.01,2.276,1.975,4.292,4.224,4.289c2.289-0.003,4.197-1.891,4.203-4.157c0.006-2.252-2.125-4.4-4.343-4.378
	C31.219,96.042,29.125,98.218,29.116,100.268z"/>
<path class="o5" fill-rule="evenodd" clip-rule="evenodd" d="M57.164,105.509c5.98,0.012,10.666,4.678,10.653,10.61
	c-0.014,5.851-4.737,10.571-10.584,10.577c-5.992,0.005-10.686-4.72-10.658-10.729C46.602,110.255,51.417,105.499,57.164,105.509z
	 M52.888,116.155c0.015,2.106,2.137,4.191,4.292,4.217c2.222,0.027,4.335-2.08,4.304-4.288c-0.031-2.168-2.199-4.257-4.396-4.237
	C54.997,111.866,52.874,114.043,52.888,116.155z"/>
<path class="o3" fill-rule="evenodd" clip-rule="evenodd" d="M35.202,72.483c-0.021,5.886-4.612,10.372-10.586,10.346
	c-5.895-0.026-10.602-4.728-10.588-10.577c0.014-5.865,4.848-10.635,10.73-10.587C30.705,61.712,35.224,66.393,35.202,72.483z
	 M20.467,72.266c-0.014,2.304,1.865,4.243,4.111,4.244c2.306,0.002,4.29-1.955,4.305-4.247c0.015-2.232-1.954-4.175-4.223-4.169
	C22.33,68.101,20.48,69.941,20.467,72.266z"/>
</svg>
