<?xml version="1.0" encoding="utf-8"?>
<!-- Generator: Adobe Illustrator 16.0.0, SVG Export Plug-In . SVG Version: 6.00 Build 0)  -->
<!DOCTYPE svg PUBLIC "-//W3C//DTD SVG 1.1//EN" "http://www.w3.org/Graphics/SVG/1.1/DTD/svg11.dtd">
<svg version="1.1" id="Layer_1" xmlns="http://www.w3.org/2000/svg" xmlns:xlink="http://www.w3.org/1999/xlink" x="0px" y="0px"
	 width="214.2px" height="147.697px" viewBox="90.9 42.075 214.2 147.697" enable-background="new 90.9 42.075 214.2 147.697"
	 xml:space="preserve">
<g>
	<path class="sewage" d="M183.304,130.088c3.325,1.799,7.069,2.684,10.848,2.562c0.383,0,0.715-0.034,1.083-0.046
		c0.126-7.756-1.403-15.45-4.486-22.567c-0.942-1.892-0.173-4.189,1.719-5.131c1.892-0.942,4.189-0.172,5.131,1.719
		c3.449,7.746,5.248,16.124,5.279,24.603c2.947-1.148,5.756-2.625,8.373-4.402c12.562-9.354,29.775-9.354,42.339,0
		c1.06,0.666,2.089,1.308,3.129,1.912c-8.388-31.07-32.896-39.638-33.151-39.722c-2.007-0.668-3.093-2.836-2.426-4.843
		c0.668-2.007,2.836-3.093,4.844-2.425c1.292,0.432,31.609,10.978,39.416,50.437c1.739,0.322,3.506,0.479,5.274,0.466
		c1.197,0,2.296-0.053,3.351-0.138c-1.042-18.598-9.627-35.965-23.768-48.088C218.827,57.915,165.92,59.85,152.1,60.875v23.451
		C171.803,86.177,183.083,102.625,183.304,130.088z M178.99,80.62c0.513-2.049,2.591-3.294,4.64-2.781
		c1.35,0.336,33.14,8.606,37.283,37.592c0.3,2.091-1.152,4.03-3.243,4.33h-0.001c-0.182,0.024-0.363,0.037-0.547,0.038
		c-1.902-0.002-3.515-1.402-3.783-3.286c-3.42-23.952-31.284-31.185-31.567-31.254C179.722,84.746,178.477,82.668,178.99,80.62z"/>
	<path d="M125.325,42.075h15.3c2.112,0,3.825,1.712,3.825,3.825v53.55c0,2.112-1.713,3.825-3.825,3.825h-15.3
		c-2.113,0-3.825-1.712-3.825-3.825V45.9C121.5,43.788,123.212,42.075,125.325,42.075z"/>
	<path d="M291.35,135.462c-6.418,3.209-13.5,4.867-20.675,4.838c-7.618-0.047-15.025-2.502-21.163-7.015
		c-10.068-7.783-24.121-7.783-34.188,0c-6.142,4.509-13.552,6.964-21.171,7.015c-7.335,0.099-14.463-2.437-20.089-7.145
		c-9.017-7.608-22.206-7.608-31.223,0c-5.623,4.708-12.749,7.243-20.082,7.145c-6.848,0.147-13.61-1.554-19.572-4.926
		c-3.771-2.163-7.959-3.497-12.286-3.913v16.543c5.974,0.697,11.619,3.108,16.252,6.943c4.322,3.758,9.879,5.789,15.606,5.703
		c5.729,0.086,11.288-1.947,15.61-5.707c11.692-9.528,28.47-9.528,40.163,0c4.327,3.761,9.889,5.793,15.621,5.707
		c6.18-0.051,12.178-2.098,17.098-5.838c12.562-9.353,29.775-9.353,42.339,0c10.062,7.785,24.111,7.785,34.173,0
		c5.117-3.687,11.08-6.029,17.338-6.812v-16.562C300.311,131.936,295.651,133.299,291.35,135.462z"/>
	<path d="M113.85,53.55H90.9V91.8h22.95V53.55z M106.2,81.549c0,2.113-1.713,3.825-3.825,3.825s-3.825-1.712-3.825-3.825v-15.3
		c0-2.112,1.713-3.825,3.825-3.825s3.825,1.713,3.825,3.825V81.549z"/>
	<path d="M270.675,174.462c-7.618-0.047-15.025-2.503-21.163-7.015c-10.068-7.783-24.121-7.783-34.188,0
		c-6.142,4.509-13.552,6.964-21.171,7.015c-7.334,0.098-14.46-2.437-20.085-7.146c-9.02-7.605-22.208-7.605-31.227,0
		c-5.623,4.71-12.748,7.246-20.082,7.149c-7.496,0.062-14.73-2.751-20.215-7.86c-3.247-3.028-7.283-5.076-11.644-5.91v15.209
		c6.118,0.807,11.839,3.479,16.386,7.65c4.141,4.023,9.699,6.256,15.472,6.215c5.729,0.084,11.287-1.947,15.61-5.707
		c11.692-9.527,28.47-9.527,40.163,0c4.326,3.76,9.887,5.79,15.618,5.703c6.18-0.05,12.178-2.099,17.098-5.84
		c12.564-9.352,29.775-9.352,42.339,0c4.915,3.742,10.912,5.79,17.09,5.836c6.217-0.095,12.208-2.343,16.952-6.36
		c5.045-4.027,11.08-6.621,17.473-7.509V160.65c-4.814,0.908-9.326,3.004-13.127,6.097
		C285.95,171.652,278.442,174.373,270.675,174.462z"/>
</g>
</svg>
