<?xml version="1.0" encoding="utf-8"?>
<!-- Generator: Adobe Illustrator 16.0.0, SVG Export Plug-In . SVG Version: 6.00 Build 0)  -->
<!DOCTYPE svg PUBLIC "-//W3C//DTD SVG 1.1//EN" "http://www.w3.org/Graphics/SVG/1.1/DTD/svg11.dtd">
<svg version="1.1" id="Layer_1" xmlns="http://www.w3.org/2000/svg" xmlns:xlink="http://www.w3.org/1999/xlink" x="0px" y="0px"
	 width="19.755px" height="34.07px" viewBox="0 0 19.755 34.07" enable-background="new 0 0 19.755 34.07" xml:space="preserve">
<path class="drop" fill="#FAB03B" d="M14.196,22.867l-0.416-0.625l-0.416,0.625c-0.344,0.516-3.369,5.111-3.369,7.16
	c0,2.305,1.628,4.043,3.785,4.043c2.158,0,3.785-1.738,3.785-4.043C17.565,27.979,14.542,23.383,14.196,22.867z"/>
<g>
	<g>
		<path fill="#FAB03B" d="M18.044,17.178c0.139-0.338,0.211-0.701,0.211-1.078V9.225c0-0.162,0-0.826,0-0.998
			c0-1.949-0.896-4.154-3.937-4.571c0,0,0.013-1.888,0-1.958h2.4c0.71,0,1.308,0,1.308-0.709s-0.598-0.863-1.308-0.863h-6.375
			c-0.71,0-1.234,0.154-1.234,0.863s0.524,0.709,1.234,0.709l2.484,0.01c-0.013,0.07-0.021,2.045-0.021,2.045H0.663
			c0,0.004,0.001,0.01,0.002,0.016c-0.302,0.027-0.54,0.273-0.54,0.582c0,0.328,0.267,0.594,0.595,0.594
			c0.012,0,0.023-0.006,0.035-0.008c0,0.004,0,0.008,0.001,0.014h11.552c0,0,1.577,0.02,2.098,0.086
			c1.513,0.193,2.658,1.521,2.752,2.973c0,0.281-0.01,0.457-0.01,0.717v6.252c0,0.234-0.024,1.059-0.024,1.059
			c0,0.453-0.759,0.954-0.763,1.412c-0.004,0.367,2.073,1.254,2.073,1.715c0,0.463-0.376,0.84-0.839,0.84h-7.501
			c-0.463,0-0.839-0.377-0.839-0.84c0-0.461,2-1.348,2.022-1.715c0.027-0.457-0.647-0.895-0.647-1.348v-5.098H0.739
			c0,0.004,0,0.006,0,0.008c-0.008,0-0.014-0.004-0.02-0.004c-0.328,0-0.595,0.268-0.595,0.596s0.267,0.592,0.595,0.592
			c0.003,0,0.006-0.002,0.01-0.002c0,0.002,0,0.006,0,0.008h8.703v3.9c0,0.377,0.072,0.74,0.211,1.078
			c-0.906,0.205-1.586,1.018-1.586,1.984c0,1.123,0.914,2.037,2.036,2.037h7.501c1.122,0,2.035-0.914,2.035-2.037
			C19.63,18.195,18.951,17.383,18.044,17.178z"/>
	</g>
</g>
</svg>
