<?xml version="1.0" encoding="utf-8"?>
<!-- Generator: Adobe Illustrator 16.0.0, SVG Export Plug-In . SVG Version: 6.00 Build 0)  -->
<!DOCTYPE svg PUBLIC "-//W3C//DTD SVG 1.1//EN" "http://www.w3.org/Graphics/SVG/1.1/DTD/svg11.dtd">
<svg version="1.1" id="Layer_1" xmlns="http://www.w3.org/2000/svg" xmlns:xlink="http://www.w3.org/1999/xlink" x="0px" y="0px"
	 width="56.6px" height="59.188px" viewBox="0 0 56.6 59.188" enable-background="new 0 0 56.6 59.188" xml:space="preserve">
<path fill="#FAB13C" d="M56.6,29.594c0,16.345-12.67,29.595-28.3,29.595S0,45.938,0,29.594C0,13.25,12.67,0,28.3,0
	S56.6,13.25,56.6,29.594"/>
<path fill="none" stroke="#2E398E" d="M13.079,17.873c0,0-1,0-1,1v3.443c0,0,0,1,1,1h3.443c0,0,1,0,1-1v-3.443c0,0,0-1-1-1H13.079z"
	/>
<path fill="none" stroke="#2E398E" d="M40.078,17.873c0,0-1,0-1,1v3.443c0,0,0,1,1,1h3.443c0,0,1,0,1-1v-3.443c0,0,0-1-1-1H40.078z"
	/>
<path fill="none" stroke="#2E398E" d="M31.078,17.873c0,0-1,0-1,1v3.443c0,0,0,1,1,1h3.443c0,0,1,0,1-1v-3.443c0,0,0-1-1-1H31.078z"
	/>
<path fill="none" stroke="#2E398E" d="M22.079,17.873c0,0-1,0-1,1v3.443c0,0,0,1,1,1h3.443c0,0,1,0,1-1v-3.443c0,0,0-1-1-1H22.079z"
	/>
<path fill="none" stroke="#2E398E" d="M13.079,26.873c0,0-1,0-1,1v3.443c0,0,0,1,1,1h3.443c0,0,1,0,1-1v-3.443c0,0,0-1-1-1H13.079z"
	/>
<path fill="none" stroke="#2E398E" d="M40.078,26.873c0,0-1,0-1,1v3.443c0,0,0,1,1,1h3.443c0,0,1,0,1-1v-3.443c0,0,0-1-1-1H40.078z"
	/>
<path fill="none" stroke="#2E398E" d="M31.078,26.873c0,0-1,0-1,1v3.443c0,0,0,1,1,1h3.443c0,0,1,0,1-1v-3.443c0,0,0-1-1-1H31.078z"
	/>
<path fill="none" stroke="#2E398E" d="M22.079,26.873c0,0-1,0-1,1v3.443c0,0,0,1,1,1h3.443c0,0,1,0,1-1v-3.443c0,0,0-1-1-1H22.079z"
	/>
<path fill="none" stroke="#2E398E" d="M13.079,35.873c0,0-1,0-1,1v3.442c0,0,0,1,1,1h3.443c0,0,1,0,1-1v-3.442c0,0,0-1-1-1H13.079z"
	/>
<path fill="none" stroke="#2E398E" d="M40.078,35.873c0,0-1,0-1,1v3.442c0,0,0,1,1,1h3.443c0,0,1,0,1-1v-3.442c0,0,0-1-1-1H40.078z"
	/>
<path fill="none" stroke="#2E398E" d="M31.078,35.873c0,0-1,0-1,1v3.442c0,0,0,1,1,1h3.443c0,0,1,0,1-1v-3.442c0,0,0-1-1-1H31.078z"
	/>
<path fill="none" stroke="#2E398E" d="M22.079,35.873c0,0-1,0-1,1v3.442c0,0,0,1,1,1h3.443c0,0,1,0,1-1v-3.442c0,0,0-1-1-1H22.079z"
	/>
</svg>
