<?xml version="1.0" encoding="utf-8"?>
<!-- Generator: Adobe Illustrator 16.0.0, SVG Export Plug-In . SVG Version: 6.00 Build 0)  -->
<!DOCTYPE svg PUBLIC "-//W3C//DTD SVG 1.1//EN" "http://www.w3.org/Graphics/SVG/1.1/DTD/svg11.dtd">
<svg version="1.1" id="Layer_1" xmlns="http://www.w3.org/2000/svg" xmlns:xlink="http://www.w3.org/1999/xlink" x="0px" y="0px"
	 width="25.716px" height="25.561px" viewBox="0 0 25.716 25.561" enable-background="new 0 0 25.716 25.561" xml:space="preserve">
<path fill="#FAB13C" d="M25.716,12.857C25.716,5.757,19.958,0,12.858,0C5.757,0,0,5.757,0,12.857C0,19.278,4.707,24.6,10.858,25.561
	v-8.988H7.572v-3.715h3.286l0.001-2.833c0-3.222,1.91-5.01,4.847-5.01c1.407,0,2.867,0.271,2.867,0.271v3.143h-1.61
	c-1.598,0-2.107,1-2.107,2.017l0.003,2.412h3.571l-0.571,3.715h-3v8.988C21.009,24.6,25.716,19.278,25.716,12.857"/>
</svg>
