<?xml version="1.0" encoding="utf-8"?>
<!-- Generator: Adobe Illustrator 16.0.0, SVG Export Plug-In . SVG Version: 6.00 Build 0)  -->
<!DOCTYPE svg PUBLIC "-//W3C//DTD SVG 1.1//EN" "http://www.w3.org/Graphics/SVG/1.1/DTD/svg11.dtd">
<svg version="1.1" id="Layer_1" xmlns="http://www.w3.org/2000/svg" xmlns:xlink="http://www.w3.org/1999/xlink" x="0px" y="0px"
	 width="56.6px" height="59.188px" viewBox="0 0 56.6 59.188" enable-background="new 0 0 56.6 59.188" xml:space="preserve">
<path fill="#FAB13C" d="M56.6,29.594c0,16.345-12.67,29.595-28.3,29.595S0,45.938,0,29.594C0,13.25,12.67,0,28.3,0
	S56.6,13.25,56.6,29.594"/>
<path fill="none" stroke="#2E398E" d="M19.379,30.068c0,0,5.571-4.119,13.77-1.804 M34.959,26.816v3.529c0,0,0,3.528-2.534,3.41
	c-2.532-0.116-2.532-0.116-5.593,4.395 M30.546,15.497v12.161 M26.133,15.497v12.161 M21.721,20.741v8.078 M37.859,23.803
	c-1.603,0-2.9,1.299-2.9,2.9c0,0.039,0.004,0.077,0.006,0.116l-0.006-0.003v-0.113v-5.962v-5.244c0-1.219-0.988-2.207-2.207-2.207
	c-1.218,0-2.206,0.988-2.206,2.207V13.29c0-1.218-0.987-2.206-2.206-2.206s-2.207,0.988-2.207,2.206v2.207
	c0-1.219-0.987-2.207-2.205-2.207c-1.22,0-2.207,0.988-2.207,2.207v5.244c0-1.219-0.987-2.207-2.207-2.207
	c-1.218,0-2.205,0.988-2.205,2.207v8.078v0.167v8.488c0,6.07,4.921,10.992,10.991,10.992s10.991-4.922,10.991-10.992v-8.25v-0.238
	v-2.402c0,0,0-2.401-0.211-2.521C38.869,23.942,38.38,23.803,37.859,23.803z"/>
</svg>
