<?xml version="1.0" encoding="utf-8"?>
<!-- Generator: Adobe Illustrator 16.0.0, SVG Export Plug-In . SVG Version: 6.00 Build 0)  -->
<!DOCTYPE svg PUBLIC "-//W3C//DTD SVG 1.1//EN" "http://www.w3.org/Graphics/SVG/1.1/DTD/svg11.dtd">
<svg version="1.1" id="Layer_1" xmlns="http://www.w3.org/2000/svg" xmlns:xlink="http://www.w3.org/1999/xlink" x="0px" y="0px"
	 width="24.666px" height="24.665px" viewBox="0 0 24.666 24.665" enable-background="new 0 0 24.666 24.665" xml:space="preserve">
<path fill="#FAB13C" d="M12.333,0C8.984,0,8.564,0.014,7.248,0.074c-1.312,0.06-2.209,0.269-2.993,0.573
	C3.444,0.963,2.756,1.384,2.07,2.07C1.385,2.755,0.963,3.443,0.648,4.254C0.343,5.039,0.135,5.936,0.075,7.248
	C0.016,8.563,0,8.983,0,12.333c0,3.349,0.016,3.77,0.075,5.084c0.06,1.313,0.268,2.209,0.573,2.994
	c0.314,0.811,0.736,1.498,1.422,2.184c0.686,0.687,1.374,1.107,2.185,1.424c0.784,0.304,1.682,0.513,2.993,0.572
	c1.316,0.061,1.736,0.074,5.085,0.074c3.35,0,3.77-0.014,5.085-0.074c1.312-0.06,2.209-0.269,2.993-0.572
	c0.812-0.316,1.499-0.737,2.185-1.424c0.686-0.686,1.107-1.373,1.423-2.184c0.305-0.785,0.513-1.681,0.572-2.994
	c0.061-1.314,0.075-1.735,0.075-5.084c0-3.35-0.015-3.77-0.075-5.085c-0.06-1.312-0.268-2.209-0.572-2.994
	c-0.315-0.811-0.737-1.499-1.423-2.184c-0.686-0.687-1.373-1.107-2.185-1.423c-0.784-0.305-1.681-0.514-2.993-0.573
	C16.103,0.014,15.683,0,12.333,0 M12.333,2.222c3.293,0,3.684,0.014,4.983,0.072c1.203,0.055,1.855,0.256,2.29,0.425
	c0.576,0.224,0.986,0.491,1.418,0.922c0.432,0.433,0.698,0.843,0.923,1.419c0.169,0.435,0.37,1.088,0.425,2.289
	c0.06,1.301,0.071,1.691,0.071,4.984c0,3.292-0.012,3.682-0.071,4.983c-0.055,1.202-0.256,1.854-0.425,2.29
	c-0.225,0.575-0.491,0.985-0.923,1.418c-0.432,0.431-0.842,0.698-1.418,0.922c-0.435,0.169-1.087,0.37-2.29,0.425
	c-1.3,0.059-1.69,0.072-4.983,0.072S8.65,22.43,7.351,22.371c-1.203-0.055-1.856-0.256-2.29-0.425
	c-0.576-0.224-0.987-0.491-1.418-0.922c-0.433-0.433-0.699-0.843-0.924-1.418c-0.169-0.436-0.369-1.088-0.425-2.29
	c-0.059-1.302-0.071-1.691-0.071-4.983c0-3.293,0.013-3.684,0.071-4.984C2.35,6.147,2.55,5.494,2.719,5.06
	C2.943,4.483,3.21,4.073,3.643,3.641C4.073,3.21,4.484,2.942,5.061,2.719c0.434-0.169,1.087-0.37,2.29-0.425
	C8.65,2.235,9.04,2.222,12.333,2.222"/>
<path fill="#FAB13C" d="M12.333,16.443c-2.27,0-4.11-1.841-4.11-4.11c0-2.271,1.841-4.111,4.11-4.111
	c2.271,0,4.111,1.841,4.111,4.111C16.444,14.603,14.604,16.443,12.333,16.443 M12.333,6C8.835,6,6,8.835,6,12.333
	s2.835,6.333,6.333,6.333s6.333-2.835,6.333-6.333S15.831,6,12.333,6"/>
<path fill="#FAB13C" d="M20.396,5.749c0,0.817-0.663,1.48-1.48,1.48c-0.816,0-1.479-0.663-1.479-1.48
	c0-0.816,0.663-1.479,1.479-1.479C19.733,4.27,20.396,4.933,20.396,5.749"/>
</svg>
