<?xml version="1.0" encoding="utf-8"?>
<!-- Generator: Adobe Illustrator 16.0.0, SVG Export Plug-In . SVG Version: 6.00 Build 0)  -->
<!DOCTYPE svg PUBLIC "-//W3C//DTD SVG 1.1//EN" "http://www.w3.org/Graphics/SVG/1.1/DTD/svg11.dtd">
<svg version="1.1" id="Layer_1" xmlns="http://www.w3.org/2000/svg" xmlns:xlink="http://www.w3.org/1999/xlink" x="0px" y="0px"
	 width="375.357px" height="375.354px" viewBox="0 0 375.357 375.354" enable-background="new 0 0 375.357 375.354"
	 xml:space="preserve">
<g>
	<defs>
		<rect id="SVGID_1_" x="-256.5" y="-120.822" width="1800" height="1188"/>
	</defs>
	<clipPath id="SVGID_2_">
		<use xlink:href="#SVGID_1_"  overflow="visible"/>
	</clipPath>
	<path clip-path="url(#SVGID_2_)" fill="#FAB03B" d="M375.357,187.677c0,103.652-84.026,187.677-187.678,187.677
		C84.028,375.354,0,291.329,0,187.677C0,84.025,84.028,0,187.679,0C291.331,0,375.357,84.025,375.357,187.677"/>
	<path clip-path="url(#SVGID_2_)" fill="#2E368F" d="M70.775,98.38h55.604c3.638,0,6.587-2.949,6.587-6.587v-28.09
		c0-3.741,3.034-6.774,6.776-6.774h30.688c3.741,0,6.774-3.033,6.774-6.775v-4.813c0-3.741,3.035-6.774,6.777-6.774h10.25
		c4.315,0,8.53,1.294,12.102,3.717l79.181,53.711c3.938,2.67,2.046,8.823-2.709,8.823h-8.787c-2.68,0-4.853,2.173-4.853,4.853v3.75
		c0,2.732,2.215,4.946,4.946,4.946h30.284c3.742,0,6.775,3.034,6.775,6.776v37.261c0,3.741-3.033,6.774-6.775,6.774h-23.94
		c-3.741,0-6.774,3.033-6.774,6.775v78.034c0,4.76-2.714,9.103-6.992,11.188L134.476,329.65c-4.253,2.073-9.204-1.022-9.204-5.753
		v-58.095c0-3.798-3.051-6.891-6.848-6.946l-47.453-0.676c-3.761-0.052-6.783-3.116-6.783-6.878V104.967
		C64.188,101.33,67.137,98.38,70.775,98.38"/>
	<path clip-path="url(#SVGID_2_)" fill="#FAB03B" d="M98.198,148.179c0,5.092,0.835,5.223,2.195,5.223
		c2.501,0,3.379-1.711,3.379-3.994c0-2.676-0.79-5.047-3.862-5.047c-1.36,0-1.667,0.702-1.712,1.625V148.179z M98.198,137.471
		c0,1.711-0.087,2.545,1.274,2.545c2.633,0,3.247-1.843,3.247-4.257c0-1.975-0.658-4.433-3.072-4.433
		c-1.624,0-1.449,1.317-1.449,2.589V137.471z M110.97,139.402c-0.395,0.351-0.79,0.614-0.79,1.186c0,0.57,0.483,0.746,0.922,0.965
		c1.799,0.702,4.915,3.029,4.915,6.715c0,4.389-2.94,9.788-11.762,9.788c-1.492,0-2.853-0.045-4.169-0.132
		c-1.317-0.044-2.634-0.088-3.994-0.088c-1.492,0-3.028,0.044-4.52,0.088c-1.493,0.087-2.985,0.132-4.521,0.132
		c-1.36,0-2.897-0.791-2.897-2.327c0-2.72,2.853,0.044,3.116-7.241l0.483-12.64c0.264-6.627-3.511-3.599-3.511-6.627
		c0-1.668,1.8-2.458,3.16-2.458c1.624,0,3.248,0.088,4.872,0.132c1.623,0.088,3.248,0.176,4.872,0.176
		c1.052,0,2.062-0.088,3.072-0.176c1.009-0.044,2.062-0.132,3.072-0.132c8.031,0,10.094,3.818,10.094,7.198
		C113.384,135.978,112.55,138.129,110.97,139.402"/>
	<path clip-path="url(#SVGID_2_)" fill="#FAB03B" d="M129.834,148.355c0,1.755,0.131,4.476,2.501,4.476
		c3.16,0,2.721-4.124,2.721-6.231c0-1.449,0.045-3.336-0.175-4.74c-0.351-2.195-2.501-1.449-2.501-3.292
		c0-2.59,8.821-3.028,10.489-3.028c1.58,0,2.238,0.921,2.238,2.458c0,1.404-0.088,2.764-0.088,4.169v8.821
		c0,2.634,2.414,1.405,2.414,3.512c0,2.984-7.768,3.818-10.182,3.818c-3.379,0-1.141-2.634-2.896-2.634
		c-0.483,0-1.186,0.659-2.239,1.317c-1.053,0.658-2.458,1.317-4.389,1.317c-8.339,0-7.636-6.584-7.636-13.167
		c0-6.715-3.029-3.774-3.029-6.671c0-2.808,11.06-2.94,11.411-2.94c1.229,0,1.361,0.57,1.361,1.667V148.355z"/>
	<path clip-path="url(#SVGID_2_)" fill="#FAB03B" d="M162.83,140.192c-2.94,0-3.467,5.048-3.467,7.11
		c0,2.063,0.527,5.662,3.248,5.662c2.941,0,2.765-5.398,2.765-7.33C165.376,143.923,165.376,140.192,162.83,140.192
		 M175.075,150.417c0,3.072,2.327,2.063,2.327,4.345c0,3.335-9.612,3.555-10.095,3.555c-2.238,0-0.659-2.414-2.106-2.414
		c-0.395,0-1.054,0.615-2.063,1.273c-1.009,0.614-2.37,1.272-4.301,1.272c-5.75,0-10.226-6.099-10.226-11.498
		c0-5.837,4.74-11.542,10.797-11.542c3.027,0,4.739,1.316,5.222,1.316c0.658,0,0.702-1.448,0.702-1.931
		c0-2.721-3.203-1.272-3.203-3.642c0-3.248,11.191-4.082,11.323-4.082c1.316,0,1.623,0.922,1.623,2.37V150.417z"/>
	<path clip-path="url(#SVGID_2_)" fill="#FAB03B" d="M190.341,138.875c-1.711,0-2.457,1.624-2.457,3.16
		c0,1.668,0.438,5.31,2.677,5.31c1.974,0,2.633-1.711,2.633-3.423C193.194,142.124,192.799,138.875,190.341,138.875
		 M190.079,162.969c1.448,0,4.74-0.219,4.74-2.238c0-0.921-0.878-1.317-1.712-1.317c-0.658,0-2.37,0.264-3.774,0.264
		c-1.01,0-3.38-0.351-3.863-0.351c-0.394,0-0.526,0.395-0.526,0.702C184.943,162.355,188.368,162.969,190.079,162.969
		 M189.64,166.745c-8.119,0-11.192-3.072-11.192-5.881c0-2.546,2.415-2.59,2.415-3.248c0-0.571-2.371-1.799-2.371-3.731
		c0-3.116,3.555-4.037,3.555-4.651c0-0.527-2.984-2.546-2.984-5.793c0-5.311,6.627-7.769,11.06-7.769
		c2.238,0,5.266,0.834,6.802,0.834c3.335,0,5.004-2.326,5.662-2.326c1.009,0,1.448,1.317,1.448,2.151
		c0,2.457-2.458,4.213-2.458,4.696c0,0.439,0.132,0.921,0.132,1.36c0,5.925-6.89,7.944-11.718,7.944
		c-0.746,0-1.492-0.132-2.282-0.132c-0.747,0-1.185,0.483-1.185,1.185c0,1.36,1.931,1.624,2.94,1.624
		c1.361,0,6.452-0.746,8.207-0.746c4.564,0,6.496,2.589,6.496,5.223C204.167,161.435,200.392,166.745,189.64,166.745"/>
	<path clip-path="url(#SVGID_2_)" fill="#FAB03B" d="M219.872,142.211c0-1.58-0.965-2.809-2.589-2.809
		c-1.448,0-2.634,1.492-2.634,2.897c0,1.58,1.493,1.229,2.634,1.229C218.468,143.528,219.872,143.791,219.872,142.211
		 M216.054,147.741c-0.483,0-1.185-0.132-1.185,0.614c0,2.195,2.853,4.038,4.915,4.038c3.292,0,4.916-1.975,5.838-1.975
		c0.921,0,1.711,1.361,1.711,2.195c0,3.379-6.188,5.836-10.138,5.836c-7.9,0-11.981-5.705-11.981-11.366
		c0-6.759,5.749-11.674,12.332-11.674c7.462,0,10.753,5.749,10.753,9.04c0,2.897-1.316,3.292-2.721,3.292H216.054z"/>
	<path clip-path="url(#SVGID_2_)" fill="#FAB03B" d="M243.126,148.355c0,2.941,1.229,3.643,2.414,3.643c1.361,0,2.15-1.01,2.94-1.01
		c0.878,0,1.493,1.229,1.493,2.02c0,2.896-5.004,5.441-9.436,5.441c-2.238,0-7.856-0.965-7.856-7.943v-9.041
		c0-0.791,0-1.097-0.22-1.229c-0.219-0.132-0.702-0.044-1.712-0.044c-1.14,0-1.711,0.044-1.93-0.176
		c-0.308-0.307-0.22-0.746-0.22-1.755c0-0.614-0.131-1.097,0.395-1.448L239,130.448c1.01-0.614,0.966-0.482,2.283-0.482
		c1.755,0,1.843-0.175,1.843,1.843c0,1.361-0.088,2.722,0.132,3.248c0.131,0.352,0.439,0.352,1.58,0.352h3.072
		c1.887,0,1.887,0.131,1.887,2.106c0,2.501-0.307,2.677-2.019,2.677h-3.028c-1.536,0-1.624,0.044-1.624,1.624V148.355z"/>
	<path clip-path="url(#SVGID_2_)" fill="#FAB03B" d="M146.719,199.293c0.609,0,2.435,0.123,2.435-0.791
		c0-0.913-1.765-4.078-2.252-4.929c-0.548-0.974-1.583-3.227-2.921-3.227c-1.461,0-2.496,3.652-2.74,4.322
		c-0.243,0.67-1.278,3.043-1.278,3.774c0,1.034,1.522,0.851,2.191,0.851H146.719z M133.938,194.912
		c1.886-4.2,4.381-9.556,4.381-14.364c0-4.199,1.948-7.365,7.365-7.365c5.295,0,8.643,5.418,11.017,9.435
		c1.035,1.764,10.225,20.389,12.417,25.38c2.008,4.626,5.295,1.826,5.295,5.295c0,4.444-8.643,4.261-11.686,4.261
		c-8.704,0-13.938-0.061-13.938-3.835c0-2.921,3.712-1.825,3.712-3.956c0-2.739-1.522-2.982-11.32-2.982
		c-3.166,0-5.052,0.121-5.052,3.104c0,2.374,3.895,0.791,3.895,3.956c0,3.652-6.574,3.713-9.007,3.713
		c-8.705,0-9.496-1.643-9.496-3.591c0-2.861,3.287-2.009,5.052-4.2c1.339-1.643,2.617-4.565,3.53-6.512L133.938,194.912z"/>
	<path clip-path="url(#SVGID_2_)" fill="#FAB03B" d="M181.161,216.884c-1.948,0-5.051,0.122-5.051-2.678
		c0-3.773,4.747-0.609,4.93-7.669c0.121-4.443,0.121-8.339,0.121-11.93c0-3.651-0.304-7.06-0.426-10.468
		c-0.121-5.113-5.477-2.435-5.477-5.904c0-4.444,9.555-4.687,12.538-4.687c12.172,0,12.781,2.07,12.781,4.139
		c0,3.531-4.808,0.852-4.808,6.574v19.355c0,4.382,0.73,6.512,5.051,6.512c10.348,0,6.817-8.46,10.713-8.46
		c2.738,0,3.774,2.922,3.774,5.234c0,4.748-3.409,10.834-6.209,10.834c-1.095,0-1.948-0.243-3.043-0.426
		c-1.157-0.243-2.496-0.426-4.565-0.426H181.161z"/>
	<path clip-path="url(#SVGID_2_)" fill="#FAB03B" d="M221.629,216.884c-1.948,0-5.052,0.122-5.052-2.678
		c0-3.773,4.748-0.609,4.93-7.669c0.122-4.443,0.122-8.339,0.122-11.93c0-3.651-0.304-7.06-0.426-10.468
		c-0.121-5.113-5.477-2.435-5.477-5.904c0-4.444,9.555-4.687,12.537-4.687c12.174,0,12.782,2.07,12.782,4.139
		c0,3.531-4.808,0.852-4.808,6.574v19.355c0,4.382,0.73,6.512,5.051,6.512c10.347,0,6.817-8.46,10.712-8.46
		c2.739,0,3.774,2.922,3.774,5.234c0,4.748-3.408,10.834-6.208,10.834c-1.095,0-1.948-0.243-3.043-0.426
		c-1.157-0.243-2.496-0.426-4.565-0.426H221.629z"/>
	<path clip-path="url(#SVGID_2_)" fill="#FFFFFF" d="M87.499,179.284c0.022-0.891,0.044-2.282-0.065-3.129
		c-0.261-1.869-1.673-1.065-1.673-2.26c0-0.826,0.956-1.173,1.651-1.173c0.565,0,4.477,0.217,6.28,0.217
		c0.435,0,4.802-0.217,5.107-0.217c0.847,0,1.738,1.781,1.738,3.259c0,0.739-0.348,1.499-1.173,1.499c-1.5,0-0.717-2.238-4.89-2.238
		c-1.325,0-1.89-0.108-1.89,3.043c0,0.391,0.022,0.76,1.282,0.76c1.673,0,0.608-1.999,2.13-1.999c1.238,0,1.325,2.368,1.325,3.216
		c0,1.021-0.109,3.651-1.586,3.651c-1.391,0,0.043-2.456-2.282-2.456c-0.956,0-0.826,0.174-0.847,2.412
		c-0.087,3.216,2.108,1.434,2.108,3.086c0,0.5,0.195,1.456-5.085,1.456c-3.477,0-4.042-0.5-4.042-1.434
		c0-1.217,1.173-0.652,1.629-1.804c0.218-0.609,0.283-2.151,0.283-2.868V179.284z"/>
	<path clip-path="url(#SVGID_2_)" fill="#FFFFFF" d="M105.733,179.631c-0.717,0-1.109,0.673-1.065,1.304
		c0.087,1.368,0.478,4.715,1.977,4.802c0.826,0.043,1-0.652,1-1.347C107.645,183.413,107.21,179.631,105.733,179.631 M99.67,183.151
		c0-3.89,3.412-6.084,6.997-6.084c3.803,0,5.976,2.976,5.976,5.671c0,3.564-3.825,5.737-7.019,5.737
		C102.408,188.476,99.67,186.584,99.67,183.151"/>
	<path clip-path="url(#SVGID_2_)" fill="#FFFFFF" d="M114.645,181.587c0-2.13-1.347-0.934-1.347-2.26
		c0-1.717,5.084-2.195,5.28-2.195c0.826,0,0.847,0.218,0.935,0.956c0.021,0.261,0,0.761,0.369,0.761
		c0.521,0,0.847-1.717,2.716-1.717c1.456,0,2.412,1.087,2.412,2.521c0,1.456-1.238,2.608-2.673,2.608
		c-1.412,0-1.803-1.239-2.368-1.239c-0.609,0-0.5,1.456-0.5,1.847c0,0.652,0.065,1.565,0.174,2.39
		c0.13,0.956,1.782,0.37,1.782,1.673c0,1.37-1.912,1.478-4.303,1.478c-0.999,0-3.955,0.044-3.955-1.456c0-0.912,1-0.912,1.239-1.673
		c0.174-0.543,0.239-1.782,0.239-2.39V181.587z"/>
	<path clip-path="url(#SVGID_2_)" fill="#FFFFFF" d="M134.139,236.618c-0.109-0.239-0.283-0.913-0.63-0.913
		c-0.413,0-0.565,0.565-1.13,1.956l-1.326,3.281c-0.456,1.13-0.673,1.934-2.086,1.934c-1.217,0-1.543-0.76-1.934-1.76l-4.042-10.322
		c-0.608-1.564-1.477-0.76-1.477-2.086c0-1.499,2.933-1.543,3.933-1.543c3.173,0,3.716,0.5,3.716,1.391c0,0.652-0.5,0.739-0.5,1.413
		c0,0.63,0.674,2.216,0.761,2.477c0.108,0.348,0.586,1.869,1.086,1.869c0.565,0,1.021-1.565,1.13-1.891
		c0.065-0.13,0.283-0.695,0.283-0.847c0-0.196-0.457-1.543-1.109-1.913c-0.434-0.217-0.804-0.521-0.804-1.064
		c0-0.131-0.304-1.435,4.238-1.435c4.215,0,4.128,0.978,4.128,1.348c0,0.717-0.978,0.912-0.978,1.456
		c0,0.586,0.739,1.934,0.957,2.412c0.152,0.347,0.63,1.695,1.151,1.695c0.739,0,1.674-3.695,1.674-3.999
		c0-0.934-1.413-0.456-1.413-1.651c0-1.326,2.217-1.261,3.108-1.261c0.89,0,2.52,0.109,2.52,1.326c0,1.065-0.912,0.782-1.499,2.303
		l-3.738,9.779c-0.456,1.173-0.956,2.303-2.195,2.303c-1.086,0-1.434-0.586-1.825-1.499L134.139,236.618z"/>
	<path clip-path="url(#SVGID_2_)" fill="#FFFFFF" d="M147.811,233.945c0-2.76-0.217-3.39-0.456-3.694
		c-0.5-0.63-1.348-0.696-1.348-1.521c0-1.565,4.433-1.565,4.868-1.565c1.304,0,3.977,0.044,3.977,1.521
		c0,0.783-0.826,0.739-1.326,1.304c-0.413,0.478-0.435,2.434-0.435,3.955v2.151c0,3.868,0.261,3.781,0.696,4.042
		c0.543,0.326,1.065,0.435,1.065,1.108c0,0.652-0.196,1.63-4.955,1.63c-0.913,0-3.651-0.022-3.651-1.412
		c0-0.696,0.739-0.804,1.087-1.217c0.261-0.304,0.478-1.108,0.478-4.151V233.945z"/>
	<path clip-path="url(#SVGID_2_)" fill="#FFFFFF" d="M167.501,232.642c0.261,0.217,0.956,0.848,1.347,0.848
		c0.544,0,0.565-0.892,0.565-1.261c0-0.543-0.021-1.478-0.195-1.977c-0.304-0.913-1.456-0.587-1.456-1.761
		c0-1.39,2.216-1.325,3.129-1.325c0.956,0,3.325-0.109,3.325,1.391c0,1.238-1.152,0.782-1.521,1.782
		c-0.283,0.782-0.283,2.129-0.283,2.955v5.628c0,0.979,0.13,3.955-1.325,3.955c-0.435,0-0.805-0.261-1.13-0.543l-6.715-6.02
		c-0.304-0.282-0.869-0.804-1.326-0.804c-0.673,0-0.695,1.413-0.695,1.869c0,0.609,0.022,1.413,0.152,1.978
		c0.326,1.39,1.478,0.869,1.478,1.934c0,1.456-2.238,1.586-3.26,1.586c-0.999,0-3.238-0.13-3.238-1.543
		c0-1.152,1.261-0.695,1.478-2.086c0.152-0.934,0.196-2.303,0.196-3.281c0-1.565,0-3.151-0.239-4.716
		c-0.348-2.173-1.913-1.325-1.913-2.629c0-1.543,2.934-1.456,3.912-1.456c1.347,0,1.586,0.087,2.564,0.956L167.501,232.642z"/>
	<path clip-path="url(#SVGID_2_)" fill="#FFFFFF" d="M186.909,232.642c0.261,0.217,0.956,0.848,1.347,0.848
		c0.544,0,0.565-0.892,0.565-1.261c0-0.543-0.021-1.478-0.195-1.977c-0.304-0.913-1.456-0.587-1.456-1.761
		c0-1.39,2.216-1.325,3.129-1.325c0.956,0,3.325-0.109,3.325,1.391c0,1.238-1.152,0.782-1.521,1.782
		c-0.283,0.782-0.283,2.129-0.283,2.955v5.628c0,0.979,0.13,3.955-1.325,3.955c-0.435,0-0.805-0.261-1.13-0.543l-6.715-6.02
		c-0.304-0.282-0.869-0.804-1.326-0.804c-0.673,0-0.695,1.413-0.695,1.869c0,0.609,0.022,1.413,0.152,1.978
		c0.326,1.39,1.478,0.869,1.478,1.934c0,1.456-2.238,1.586-3.26,1.586c-0.999,0-3.238-0.13-3.238-1.543
		c0-1.152,1.261-0.695,1.478-2.086c0.152-0.934,0.196-2.303,0.196-3.281c0-1.565,0-3.151-0.239-4.716
		c-0.348-2.173-1.913-1.325-1.913-2.629c0-1.543,2.934-1.456,3.912-1.456c1.347,0,1.586,0.087,2.564,0.956L186.909,232.642z"/>
	<path clip-path="url(#SVGID_2_)" fill="#FFFFFF" d="M196.496,233.945c0-2.76-0.217-3.39-0.456-3.694
		c-0.5-0.63-1.348-0.696-1.348-1.521c0-1.565,4.434-1.565,4.868-1.565c1.304,0,3.977,0.044,3.977,1.521
		c0,0.783-0.826,0.739-1.326,1.304c-0.413,0.478-0.434,2.434-0.434,3.955v2.151c0,3.868,0.26,3.781,0.695,4.042
		c0.543,0.326,1.065,0.435,1.065,1.108c0,0.652-0.196,1.63-4.955,1.63c-0.912,0-3.651-0.022-3.651-1.412
		c0-0.696,0.739-0.804,1.087-1.217c0.261-0.304,0.478-1.108,0.478-4.151V233.945z"/>
	<path clip-path="url(#SVGID_2_)" fill="#FFFFFF" d="M212.404,229.665c-0.848,0-0.826,0.261-0.826,0.695v3.26
		c0,0.456-0.196,0.956,0.978,0.956c1.434,0,1.999-1.087,1.999-2.412C214.555,230.795,213.86,229.665,212.404,229.665
		 M206.58,230.708c0-1.63-2.021-0.913-2.021-2.282c0-0.869,0.956-1.065,1.63-1.065c0.543,0,1.065,0.044,1.608,0.044
		c3.151,0,5.063-0.304,5.976-0.304c2.955,0,5.802,1.716,5.802,4.976c0,3.238-2.738,4.976-5.759,4.976
		c-0.652,0-1.304-0.109-1.89-0.109c-0.261,0-0.348,0.109-0.348,0.348v1.26c0.065,2.717,1.651,1.587,1.651,2.847
		c0,1.413-3.129,1.478-4.107,1.478c-0.912,0-4.128-0.021-4.128-1.435c0-1.194,1.586-0.456,1.586-2.238V230.708z"/>
	<path clip-path="url(#SVGID_2_)" fill="#FFFFFF" d="M229.574,227.405c2.912,0,3.325-0.434,3.672-0.434
		c1.239,0,1.761,2.129,1.761,3.085c0,0.717-0.283,1.565-1.13,1.565c-1.717,0-0.326-2.086-4.455-2.086
		c-2.412,0-2.173,0.434-2.173,2.933c0,1.261,0.065,1.304,1.391,1.304c1.651,0,0.412-2.412,1.955-2.412
		c1.261,0,1.348,2.456,1.348,3.303c0,0.891-0.153,3.499-1.456,3.499c-1.348,0,0-2.282-2.195-2.282c-0.913,0-0.891,0.826-0.891,1.521
		c0,3.173,0.217,3.02,2.499,3.02c4.455,0,3.194-3.063,4.976-3.063c0.696,0,1.043,0.782,1.043,1.39c0,1.478-1.173,4.129-2.042,4.129
		c-0.152,0-0.5-0.065-0.957-0.13c-0.478-0.044-1.086-0.109-1.825-0.109h-8.931c-1.434,0-1.456-0.652-1.456-0.934
		c0-1.196,1.478-0.239,1.63-2.543c0.261-3.955,0.282-3.564,0.065-7.497c-0.152-3.325-1.804-1.608-1.804-3.151
		c0-1.325,1.826-1.108,2.717-1.108H229.574z"/>
	<path clip-path="url(#SVGID_2_)" fill="#FFFFFF" d="M246.657,239.769c0.761,0,1.326-0.565,1.326-1.347
		c0-1.804-2.282-0.044-2.282-2.043c0-1.586,3.281-1.695,4.389-1.695c4.086,0,4.325,1.152,4.325,1.782c0,0.565-0.478,0.956-1,1.043
		c-0.565,0.065-0.608,0.174-0.761,0.739c-0.847,3.173-3.911,4.694-6.997,4.694c-4.606,0-8.627-3.195-8.627-7.997
		c0-4.585,3.89-7.845,8.54-7.845c1.913,0,2.956,0.587,3.521,0.587c0.391,0,0.956-0.326,1.347-0.326c1.347,0,2.151,2.217,2.151,3.325
		c0,1.065-0.543,2.151-1.716,2.151c-2.152,0-2.152-3.021-5.107-3.021c-1.89,0-3.107,1.564-3.107,3.868
		C242.659,238.161,245.266,239.769,246.657,239.769"/>
</g>
</svg>
