<?xml version="1.0" encoding="utf-8"?>
<!-- Generator: Adobe Illustrator 16.0.0, SVG Export Plug-In . SVG Version: 6.00 Build 0)  -->
<!DOCTYPE svg PUBLIC "-//W3C//DTD SVG 1.1//EN" "http://www.w3.org/Graphics/SVG/1.1/DTD/svg11.dtd">
<svg version="1.1" id="Layer_1" xmlns="http://www.w3.org/2000/svg" xmlns:xlink="http://www.w3.org/1999/xlink" x="0px" y="0px"
	 width="56.6px" height="59.188px" viewBox="0 0 56.6 59.188" enable-background="new 0 0 56.6 59.188" xml:space="preserve">
<path fill="#FAB13C" d="M56.6,29.594c0,16.345-12.67,29.595-28.3,29.595S0,45.938,0,29.594C0,13.25,12.67,0,28.3,0
	S56.6,13.25,56.6,29.594"/>
<path fill="none" stroke="#2E398E" d="M15.879,20.45h5.907c0.388,0,0.7-0.313,0.7-0.7v-2.985c0-0.397,0.322-0.719,0.72-0.719h3.262
	c0.396,0,0.719-0.323,0.719-0.72v-0.512c0-0.397,0.323-0.719,0.721-0.719h1.089c0.458,0,0.906,0.137,1.286,0.395l8.413,5.707
	c0.418,0.283,0.217,0.937-0.288,0.937h-0.934c-0.284,0-0.516,0.231-0.516,0.516v0.398c0,0.29,0.235,0.526,0.525,0.526h3.218
	c0.398,0,0.721,0.322,0.721,0.72v3.959c0,0.397-0.322,0.72-0.721,0.72h-2.544c-0.396,0-0.719,0.322-0.719,0.719v8.292
	c0,0.506-0.289,0.967-0.743,1.188l-14.049,6.851c-0.451,0.221-0.977-0.108-0.977-0.611v-6.173c0-0.403-0.325-0.731-0.729-0.738
	l-5.042-0.071c-0.4-0.006-0.721-0.332-0.721-0.73V21.15C15.179,20.763,15.491,20.45,15.879,20.45"/>
</svg>
