<?xml version="1.0" encoding="utf-8"?>
<!-- Generator: Adobe Illustrator 16.0.0, SVG Export Plug-In . SVG Version: 6.00 Build 0)  -->
<!DOCTYPE svg PUBLIC "-//W3C//DTD SVG 1.1//EN" "http://www.w3.org/Graphics/SVG/1.1/DTD/svg11.dtd">
<svg version="1.1" id="Layer_1" xmlns="http://www.w3.org/2000/svg" xmlns:xlink="http://www.w3.org/1999/xlink" x="0px" y="0px"
	 width="32.346px" height="26.287px" viewBox="0 0 32.346 26.287" enable-background="new 0 0 32.346 26.287" xml:space="preserve">
<path fill="#FAB13C" d="M10.173,26.287c12.208,0,18.881-10.112,18.881-18.882c0-0.287-0.006-0.573-0.019-0.857
	c1.295-0.937,2.422-2.105,3.311-3.437c-1.189,0.529-2.469,0.885-3.812,1.045c1.37-0.82,2.422-2.121,2.918-3.671
	c-1.281,0.76-2.701,1.313-4.213,1.611C26.029,0.807,24.304,0,22.396,0c-3.666,0-6.638,2.972-6.638,6.636
	c0,0.521,0.059,1.026,0.173,1.513C10.415,7.871,5.525,5.23,2.252,1.216c-0.571,0.979-0.899,2.12-0.899,3.335
	c0,2.302,1.172,4.335,2.953,5.523c-1.088-0.033-2.111-0.333-3.005-0.83C1.299,9.271,1.299,9.3,1.299,9.328
	c0,3.216,2.288,5.898,5.324,6.507c-0.557,0.151-1.144,0.233-1.749,0.233c-0.428,0-0.844-0.042-1.248-0.12
	c0.845,2.638,3.295,4.556,6.2,4.609c-2.272,1.78-5.133,2.841-8.242,2.841c-0.536,0-1.064-0.031-1.584-0.092
	C2.938,25.188,6.425,26.287,10.173,26.287"/>
</svg>
