<?xml version="1.0" encoding="utf-8"?>
<!-- Generator: Adobe Illustrator 16.0.0, SVG Export Plug-In . SVG Version: 6.00 Build 0)  -->
<!DOCTYPE svg PUBLIC "-//W3C//DTD SVG 1.1//EN" "http://www.w3.org/Graphics/SVG/1.1/DTD/svg11.dtd">
<svg version="1.1" id="Layer_1" xmlns="http://www.w3.org/2000/svg" xmlns:xlink="http://www.w3.org/1999/xlink" x="0px" y="0px"
	 width="201px" height="201px" viewBox="-200.5 67.2 201 201" enable-background="new -200.5 67.2 201 201" xml:space="preserve">
<circle fill="#FAAF40" cx="-100" cy="167.7" r="100.5"/>
<g>
	<polygon fill="#FFFFFF" points="-48.592,159.133 -48.592,161.58 -48.592,164.028 -48.592,171.372 -48.592,173.82 -48.592,176.269 
		-48.592,195.853 -35.128,195.853 -35.128,192.181 -35.128,176.269 -35.128,173.82 -35.128,171.372 -35.128,164.028 -35.128,161.58 
		-35.128,159.133 -35.128,143.221 -35.128,139.549 -48.592,139.549 	"/>
	<rect x="-146.512" y="164.028" fill="#FFFFFF" width="93.024" height="7.344"/>
	<polygon fill="#FFFFFF" points="-164.872,143.221 -164.872,159.133 -164.872,161.58 -164.872,164.028 -164.872,171.372 
		-164.872,173.82 -164.872,176.269 -164.872,192.181 -164.872,195.853 -151.408,195.853 -151.408,176.269 -151.408,173.82 
		-151.408,171.372 -151.408,164.028 -151.408,161.58 -151.408,159.133 -151.408,139.549 -164.872,139.549 	"/>
	<polygon fill="#FFFFFF" points="-30.232,159.133 -30.232,161.58 -30.232,164.028 -30.232,171.372 -30.232,173.82 -30.232,176.269 
		-30.232,189.732 -22.889,189.732 -22.889,176.269 -22.889,173.82 -22.889,171.372 -22.889,164.028 -22.889,161.58 -22.889,159.133 
		-22.889,145.669 -30.232,145.669 	"/>
	<polygon fill="#FFFFFF" points="-177.112,159.133 -177.112,161.58 -177.112,164.028 -177.112,171.372 -177.112,173.82 
		-177.112,176.269 -177.112,189.732 -169.768,189.732 -169.768,176.269 -169.768,173.82 -169.768,171.372 -169.768,164.028 
		-169.768,161.58 -169.768,159.133 -169.768,145.669 -177.112,145.669 	"/>
	<rect x="-189.352" y="164.028" fill="#FFFFFF" width="7.344" height="7.344"/>
	<rect x="-17.992" y="164.028" fill="#FFFFFF" width="7.344" height="7.344"/>
</g>
</svg>
