<svg xmlns="http://www.w3.org/2000/svg" xmlns:xlink="http://www.w3.org/1999/xlink" version="1.1" x="0px" y="0px" viewBox="0 0 30 18" style="enable-background:new 0 0 30 19;" xml:space="preserve"><g><path d="M7,1h11v3.049C16.537,4.231,15.466,4.977,14.698,6H4.949C4.718,4.859,3.71,4,2.5,4C1.119,4,0,5.119,0,6.5S1.119,9,2.5,9   c0.792,0,1.49-0.376,1.948-0.951l8.559,3.668C13.005,11.811,13,11.908,13,12c0,2.087,0.516,3.131,2,3.618V18h-5v1h18v-1h-5v-2.254   c3.193-0.42,6-1.455,6-3.746c0-3.243-5.618-7.79-10-7.982V1h11V0H7V1z M2.5,8C1.672,8,1,7.328,1,6.5S1.672,5,2.5,5   C3.328,5,4,5.672,4,6.5S3.328,8,2.5,8z M20.477,5.256c2.888,0.766,5.925,3.158,7.057,5.23c-2.854-0.071-4.894-0.781-6.044-2.129   C20.447,7.136,20.445,5.727,20.477,5.256z M22,15.856V18h-6v-2.154C16.735,15.958,17.629,16,18.714,16   C19.761,16,20.888,15.959,22,15.856z"/></g><text x="0" y="34" fill="#000000" font-size="5px" font-weight="bold" font-family="'Helvetica Neue', Helvetica, Arial-Unicode, Arial, Sans-serif">Created by Hea Poh Lin</text><text x="0" y="39" fill="#000000" font-size="5px" font-weight="bold" font-family="'Helvetica Neue', Helvetica, Arial-Unicode, Arial, Sans-serif">from the Noun Project</text></svg>
